<?xml version="1.0" encoding="UTF-8"?>
<svg width="128px" height="24px" viewBox="0 0 128 24" version="1.1" xmlns="http://www.w3.org/2000/svg" xmlns:xlink="http://www.w3.org/1999/xlink">
    <!-- Generator: Sketch 57.1 (83088) - https://sketch.com -->
    <title>Colored Logo</title>
    <desc>Created with Sketch.</desc>
    <g id="Page-1" stroke="none" stroke-width="1" fill="none" fill-rule="evenodd">
        <g id="iPhone-XS-BC-EXP-Copy-51" transform="translate(-24.000000, -48.000000)" fill-rule="nonzero">
            <g id="Strip">
                <g id="Header/Modal" transform="translate(24.000000, 32.000000)">
                    <g id="Group-4">
                        <g id="Colored-Logo" transform="translate(0.000000, 16.000000)">
                            <g>
                                <path d="M37.7939394,12.6909091 C35.0812121,12.7781818 33.3939394,13.2678788 33.3939394,15.0569697 C33.3939394,16.2109091 34.3175758,17.4642424 36.6593939,17.4642424 C39.7987879,17.4642424 41.4739394,15.7527273 41.4739394,12.9478788 L41.4739394,12.6375758 C40.3830303,12.6375758 39.0254545,12.649697 37.7939394,12.6909091 Z M44.4654545,16.3975758 C44.4654545,17.2678788 44.4921212,18.1309091 44.5648485,18.9018182 L41.7915152,18.9018182 C41.7219918,18.2755581 41.687998,17.6458626 41.689697,17.0157576 C40.1842424,18.8678788 38.3951515,19.3987879 35.9151515,19.3987879 C32.230303,19.3987879 30.2569697,17.4593939 30.2569697,15.2 C30.2569697,11.9393939 32.9406061,10.790303 37.5951515,10.6836364 C38.870303,10.6545455 40.3006061,10.649697 41.4739394,10.649697 L41.4739394,10.3321212 C41.4739394,8.15030303 40.0751515,7.25090909 37.6509091,7.25090909 C35.8472727,7.25090909 34.5187879,7.99515152 34.3830303,9.28484848 L31.2484848,9.28484848 C31.5830303,6.07272727 34.9551515,5.26060606 37.9224242,5.26060606 C41.4763636,5.26060606 44.4678788,6.52363636 44.4678788,10.2812121 L44.4654545,16.3975758 Z" id="Shape" fill="#A60D8A"></path>
                                <path d="M11.92,11.0981818 C11.8036364,8.29575758 9.78424242,7.25090909 7.62666667,7.25090909 C5.2969697,7.25090909 3.43757576,8.42909091 3.11272727,11.0981818 L11.92,11.0981818 Z M3.04727273,13.0884848 C3.21212121,15.8012121 5.08121212,17.4060606 7.65333333,17.4060606 C9.43515152,17.4060606 11.0230303,16.6787879 11.5563636,15.1006061 L14.64,15.1006061 C14.0363636,18.310303 10.6424242,19.3987879 7.70181818,19.3987879 C2.36848485,19.3987879 2.27373675e-13,16.4606061 2.27373675e-13,12.4969697 C2.27373675e-13,8.13333333 2.44606061,5.26060606 7.75757576,5.26060606 C11.9830303,5.26060606 15.0739394,7.47151515 15.0739394,12.2909091 L15.0739394,13.0860606 L3.04727273,13.0884848 Z" id="Shape" fill="#A60D8A"></path>
                                <path d="M22.7393939,17.3527273 C25.52,17.3527273 27.4230303,15.350303 27.4230303,12.329697 C27.4230303,9.30909091 25.52,7.31151515 22.7393939,7.31151515 C19.9587879,7.31151515 18.0557576,9.30909091 18.0557576,12.329697 C18.0557576,15.350303 19.9757576,17.3527273 22.7393939,17.3527273 Z M15.0642424,0 L18.0557576,0 L18.0557576,7.51515152 C19.510303,5.76727273 21.5418182,5.25818182 23.5321212,5.25818182 C26.8630303,5.25818182 30.5624242,7.50787879 30.5624242,12.3660606 C30.5624242,16.4315152 27.6193939,19.3963636 23.4715152,19.3963636 C21.289697,19.3963636 19.2606061,18.6181818 18,17.0739394 C17.9998721,17.683908 17.9650685,18.2933761 17.8957576,18.8993939 L14.9624242,18.8993939 C15.0133333,17.9490909 15.0642424,16.7684848 15.0642424,15.8084848 L15.0642424,0 Z" id="Shape" fill="#A60D8A"></path>
                                <polygon id="Path" fill="#A60D8A" points="59.7090909 5.75757576 50.4557576 23.9393939 47.1078788 23.9393939 49.7745455 18.8921212 42.8048485 5.75757576 46.3030303 5.75757576 51.4278788 16.009697 56.5381818 5.75757576"></polygon>
                                <path d="M64.7975758,16.9406061 L64.7975758,18.9042424 L62.2109091,18.9042424 L62.2109091,0.383030303 L64.7975758,0.383030303 L64.7975758,7.49333333 C65.7406061,6.00242424 67.5321212,5.20484848 69.3454545,5.20484848 C72.9018182,5.20484848 75.76,8.08969697 75.76,12.2157576 C75.76,16.3418182 72.9018182,19.2363636 69.3454545,19.2363636 C67.5321212,19.2363636 65.7406061,18.4339394 64.7975758,16.9406061 Z M68.8727273,7.3430303 C66.3878788,7.3430303 64.6472727,9.30666667 64.6472727,12.2157576 C64.6472727,15.1248485 66.3878788,17.0909091 68.8727273,17.0909091 C71.3575758,17.0909091 73.0763636,15.1151515 73.0763636,12.2060606 C73.0763636,9.2969697 71.3357576,7.3430303 68.8727273,7.3430303 L68.8727273,7.3430303 Z" id="Shape" fill="#01718F"></path>
                                <path d="M78.72,17.9345455 C77.6509091,17.0157576 77.129697,15.6242424 77.129697,13.4109091 L77.129697,5.52969697 L79.7139394,5.52969697 L79.7139394,13.3115152 C79.7139394,14.7030303 79.9878788,15.5490909 80.5115152,16.1212121 C81.0569697,16.7418182 81.8787879,17.0157576 82.8969697,17.0157576 C83.9151515,17.0157576 84.7127273,16.7418182 85.2848485,16.1212121 C85.7818182,15.5490909 86.08,14.7030303 86.08,13.3115152 L86.08,5.52969697 L88.6666667,5.52969697 L88.6666667,13.4181818 C88.6666667,15.6315152 88.1187879,17.0230303 87.049697,17.9418182 C86.1042424,18.7878788 84.6884848,19.2339394 82.8969697,19.2339394 C81.1054545,19.2339394 79.6654545,18.7806061 78.72,17.9345455 Z" id="Path" fill="#01718F"></path>
                                <path d="M90.0072727,12.2060606 C90.0072727,8.22787879 92.8678788,5.19515152 96.969697,5.19515152 C100.450909,5.19515152 102.962424,7.28484848 103.607273,10.5163636 L100.923636,10.5163636 C100.4,8.52848485 99.0084848,7.40848485 96.969697,7.40848485 C94.3345455,7.40848485 92.6690909,9.52242424 92.6690909,12.2060606 C92.6690909,14.889697 94.3345455,17.0060606 96.969697,17.0060606 C98.9842424,17.0060606 100.450909,15.8618182 100.923636,13.8981818 L103.607273,13.8981818 C102.986667,17.1151515 100.426667,19.2363636 96.969697,19.2363636 C92.8678788,19.2363636 90.0072727,16.2206061 90.0072727,12.2060606 Z" id="Path" fill="#01718F"></path>
                                <polygon id="Path" fill="#01718F" points="107.835152 12.8145455 107.835152 18.9042424 105.250909 18.9042424 105.250909 0.383030303 107.835152 0.383030303 107.835152 11.3963636 113.505455 5.52969697 116.562424 5.52969697 110.370909 11.8933333 117.258182 18.9042424 113.975758 18.9042424"></polygon>
                                <path d="M116.688485,14.630303 L119.2,14.630303 C119.498182,16.3709091 120.766061,17.1927273 122.606061,17.1927273 C123.997576,17.1927273 125.464242,16.6206061 125.464242,15.3018182 C125.464242,14.089697 124.443636,13.5854545 122.877576,13.289697 L121.013333,12.9163636 C118.627879,12.4436364 116.935758,11.2193939 116.935758,9.01090909 C116.935758,6.80242424 119.173333,5.15878788 122.133333,5.15878788 C124.916364,5.15878788 127.224242,6.47515152 127.602424,9.30909091 L125.166061,9.30909091 C124.843636,7.84242424 123.648485,7.14666667 122.058182,7.14666667 C120.690909,7.14666667 119.347879,7.71878788 119.347879,8.88727273 C119.347879,9.90787879 120.075152,10.48 121.561212,10.7781818 L123.301818,11.1248485 C125.762424,11.609697 127.951515,12.5187879 127.951515,15.0036364 C127.951515,17.7381818 125.539394,19.2291196 122.504242,19.2291196 C119.522424,19.2363636 117.110303,17.8618182 116.688485,14.630303 Z" id="Path" fill="#01718F"></path>
                            </g>
                        </g>
                    </g>
                </g>
            </g>
        </g>
    </g>
</svg>