<?xml version="1.0" encoding="utf-8"?>
<!-- Generator: Adobe Illustrator 23.0.1, SVG Export Plug-In . SVG Version: 6.00 Build 0)  -->
<svg version="1.1" id="Layer_1" xmlns="http://www.w3.org/2000/svg" xmlns:xlink="http://www.w3.org/1999/xlink" x="0px" y="0px"
	 viewBox="0 0 24 24" style="enable-background:new 0 0 24 24;" xml:space="preserve">
<style type="text/css">
	.st0{fill:none;stroke:#0E4B6D;stroke-width:0.443;}
	.st1{fill:none;stroke:#0E4B6D;stroke-width:0.5316;}
	.st2{fill:none;stroke:#0E4B6D;stroke-width:0.3544;}
	.st3{fill:none;stroke:#0E4B6D;stroke-width:0.5316;stroke-linejoin:round;}
</style>
<g id="Rocket" transform="translate(105.000000, 420.000000)">
	<circle id="Oval" class="st0" cx="-90.8" cy="-410.7" r="1.3"/>
	<path id="Path_1_" class="st1" d="M-95.4-405.4l-1-0.7c0.3-1.3,1-2.9,2-4.4c2.1-3,5.2-4.4,6.1-3.8s0.6,4-1.5,7
		c-1.1,1.5-2.3,2.7-3.4,3.4l-1-0.7"/>
	<path id="Path_4_" class="st2" d="M-94.2-404.3l0.6,0.4c-0.2,0.1-0.3,0.2-0.5,0.3l-0.5-0.4"/>
	<path id="Path_3_" class="st2" d="M-95.7-404.7l-0.5-0.4c0-0.2,0.1-0.4,0.1-0.6l0.6,0.5"/>
	<path id="Oval_1_" class="st3" d="M-96.6-402.4c0.2,0.1,5.2-4.2,3.7-5.3C-94.4-408.8-96.7-402.5-96.6-402.4z"/>
	<path id="Path-3" class="st1" d="M-90.2-406.7c0.2,1.8,0.2,2.8,0,3.1c-0.8,1.3-2.5,2.7-3,2.6c-0.5-0.1-0.2-0.9,0-2.9
		C-92.2-404.6-91.2-405.5-90.2-406.7z"/>
	<path id="Path-3_1_" class="st1" d="M-94.9-409.8c-1.7,0.4-2.7,0.8-2.9,1c-0.9,1.2-1.7,3.3-1.4,3.7c0.3,0.4,1-0.2,2.7-1
		C-96.2-407.2-95.7-408.4-94.9-409.8z"/>
</g>
</svg>
